<svg xmlns="http://www.w3.org/2000/svg" width="36" height="36" viewBox="0 0 36 36">
  <metadata><?xpacket begin="﻿" id="W5M0MpCehiHzreSzNTczkc9d"?>
<x:xmpmeta xmlns:x="adobe:ns:meta/" x:xmptk="Adobe XMP Core 5.6-c138 79.159824, 2016/09/14-01:09:01        ">
   <rdf:RDF xmlns:rdf="http://www.w3.org/1999/02/22-rdf-syntax-ns#">
      <rdf:Description rdf:about=""/>
   </rdf:RDF>
</x:xmpmeta>
                                                                                                    
                                                                                                    
                                                                                                    
                                                                                                    
                                                                                                    
                                                                                                    
                                                                                                    
                                                                                                    
                                                                                                    
                                                                                                    
                                                                                                    
                                                                                                    
                                                                                                    
                                                                                                    
                                                                                                    
                                                                                                    
                                                                                                    
                                                                                                    
                                                                                                    
                                                                                                    
                           
<?xpacket end="w"?></metadata>
<defs>
    <style>
      .cls-1 {
        fill: #2667ff;
      }

      .cls-1, .cls-2 {
        fill-rule: evenodd;
      }

      .cls-2 {
        fill: #11ac68;
      }
    </style>
  </defs>
  <path id="_" data-name="" class="cls-1" d="M5.552,19.8q-0.492-.017-0.993-0.026t-0.993-.009a2.371,2.371,0,0,1-1.433-.483A4.2,4.2,0,0,1,.991,17.959a7.441,7.441,0,0,1-.756-2,10.856,10.856,0,0,1-.272-2.5,10.778,10.778,0,0,1,.272-2.487,7.445,7.445,0,0,1,.756-2A4.2,4.2,0,0,1,2.133,7.649a2.373,2.373,0,0,1,1.433-.483,47.951,47.951,0,0,0,6.3-.413q3.12-.413,6.012-1.02t5.458-1.327q2.566-.721,4.641-1.318,2-.58,3.34-0.94a9.476,9.476,0,0,1,2.074-.378h0.07a2.894,2.894,0,0,1,1.679.721,6.46,6.46,0,0,1,1.714,3.059h0a14.211,14.211,0,0,1,.483,1.714q0.2,0.923.343,1.925t0.211,2.083q0.07,1.081.07,2.188,0,1.125-.07,2.206t-0.211,2.083q-0.141,1-.343,1.925a14.216,14.216,0,0,1-.483,1.714,6.457,6.457,0,0,1-1.714,3.059,2.892,2.892,0,0,1-1.679.721h-0.07a9.443,9.443,0,0,1-2.074-.378q-1.336-.36-3.34-0.94-1.424-.422-3.1-0.9T19.333,22q-1.863-.475-3.885-0.9t-4.131-.738L9.243,20.1q-0.457-.053-0.905-0.1t-0.905-.079Zm23.2-6.346q0,0.7.035,1.38t0.088,1.327a1.628,1.628,0,0,0,1.187-.861,3.375,3.375,0,0,0,.5-1.846,3.332,3.332,0,0,0-.5-1.837,1.631,1.631,0,0,0-1.187-.853q-0.053.651-.088,1.327t-0.035,1.362h0Zm-27,0a7.246,7.246,0,0,0,.624,3.287,1.776,1.776,0,0,0,1.187,1.213q0.756,0,1.521.026t1.529,0.079q0.765,0.053,1.512.114t1.5,0.149a12.7,12.7,0,0,1-.5-2.259,20.347,20.347,0,0,1,0-5.2,12.7,12.7,0,0,1,.5-2.259l-1.5.141q-0.747.07-1.512,0.123t-1.529.07q-0.765.018-1.521,0.018A1.781,1.781,0,0,0,2.379,10.18a7.257,7.257,0,0,0-.624,3.278h0Zm9.879,5.15q2.162,0.316,4.2.747t3.929,0.905q1.889,0.475,3.586.958t3.138,0.905q0.562,0.158,1.1.316l1.011,0.3q-0.141-.3-0.273-0.633t-0.255-.721a14.107,14.107,0,0,1-.483-1.714q-0.2-.923-0.343-1.925t-0.211-2.083q-0.07-1.081-.07-2.206,0-1.107.07-2.188t0.211-2.083q0.141-1,.343-1.925a14.1,14.1,0,0,1,.483-1.714q0.123-.386.255-0.721T28.6,4.195l-1.011.3q-0.536.158-1.1,0.316-1.442.422-3.138,0.905t-3.586.958q-1.89.475-3.929,0.905t-4.2.747a10.223,10.223,0,0,0-.642,2.276,16.432,16.432,0,0,0-.237,2.856,16.627,16.627,0,0,0,.237,2.857,10.209,10.209,0,0,0,.642,2.294h0ZM33.15,20.824q0.246-.738.439-1.582t0.316-1.784q0.123-.94.193-1.942t0.07-2.057q0-1.037-.07-2.048T33.906,9.468q-0.123-.932-0.316-1.775T33.15,6.111a5.71,5.71,0,0,0-.984-2.03,1.421,1.421,0,0,0-.7-0.519,1.42,1.42,0,0,0-.7.519,5.7,5.7,0,0,0-.984,2.03q-0.211.633-.387,1.362t-0.3,1.521a2.984,2.984,0,0,1,1.257.431,3.847,3.847,0,0,1,1.046.958,4.427,4.427,0,0,1,.721,1.415,5.759,5.759,0,0,1,0,3.331,4.662,4.662,0,0,1-.721,1.424,3.84,3.84,0,0,1-1.046.958,2.977,2.977,0,0,1-1.257.431q0.123,0.791.3,1.521t0.387,1.362a5.7,5.7,0,0,0,.984,2.03,1.418,1.418,0,0,0,.7.519,1.419,1.419,0,0,0,.7-0.519,5.7,5.7,0,0,0,.984-2.03h0Z"/>
  <path id="_2" data-name="" class="cls-2" d="M11.818,21.867l4.123,9.4a2.336,2.336,0,0,1,.2,1.055,1.847,1.847,0,0,1-.308.949,1.924,1.924,0,0,1-.756.659,2.325,2.325,0,0,1-1.055.237H11.669a3.13,3.13,0,0,1-1.96-.7A3.052,3.052,0,0,1,8.558,31.74L6.052,21.3l1.881,0.123L10.3,31.3a1.378,1.378,0,0,0,.519.747,1.363,1.363,0,0,0,.853.325h2.355a0.55,0.55,0,0,0,.22-0.035,0.393,0.393,0,0,0,.1-0.053,0.162,0.162,0,0,0,.009-0.105,0.747,0.747,0,0,0-.062-0.211h0L9.743,21.6Z"/>
</svg>
