<svg xmlns="http://www.w3.org/2000/svg" width="36" height="36" viewBox="0 0 36 36">
  <metadata><?xpacket begin="﻿" id="W5M0MpCehiHzreSzNTczkc9d"?>
<x:xmpmeta xmlns:x="adobe:ns:meta/" x:xmptk="Adobe XMP Core 5.6-c138 79.159824, 2016/09/14-01:09:01        ">
   <rdf:RDF xmlns:rdf="http://www.w3.org/1999/02/22-rdf-syntax-ns#">
      <rdf:Description rdf:about=""/>
   </rdf:RDF>
</x:xmpmeta>
                                                                                                    
                                                                                                    
                                                                                                    
                                                                                                    
                                                                                                    
                                                                                                    
                                                                                                    
                                                                                                    
                                                                                                    
                                                                                                    
                                                                                                    
                                                                                                    
                                                                                                    
                                                                                                    
                                                                                                    
                                                                                                    
                                                                                                    
                                                                                                    
                                                                                                    
                                                                                                    
                           
<?xpacket end="w"?></metadata>
<defs>
    <style>
      .cls-1 {
        fill: #2667ff;
      }

      .cls-1, .cls-2 {
        fill-rule: evenodd;
      }

      .cls-2 {
        fill: #11ac68;
      }
    </style>
  </defs>
  <path id="_" data-name="" class="cls-1" d="M23.216,20.55L35.083,32.418h0a2.009,2.009,0,0,1,.563,1.011,1.919,1.919,0,0,1-.835,2,2.048,2.048,0,0,1-1.116.316H2.951a2.61,2.61,0,0,1-1.916-.791,2.589,2.589,0,0,1-.791-1.9V2.289A1.963,1.963,0,0,1,.569,1.181,1.9,1.9,0,0,1,1.439.461,1.854,1.854,0,0,1,2.564.355a2.01,2.01,0,0,1,1.02.563l11.867,11.85L14.167,14.05,2.3,2.183a0.424,0.424,0,0,0-.079-0.062,0.112,0.112,0,0,0-.1-0.009,0.169,0.169,0,0,0-.07.088,0.287,0.287,0,0,0-.018.088V12.343H2.951a0.9,0.9,0,0,1,.9.9,0.884,0.884,0,0,1-.264.65,0.863,0.863,0,0,1-.633.264H2.036V17.74H2.951A0.863,0.863,0,0,1,3.583,18a0.884,0.884,0,0,1,.264.65,0.9,0.9,0,0,1-.9.9H2.036v3.6H2.951a0.9,0.9,0,0,1,0,1.793H2.036v3.6H2.951a0.9,0.9,0,0,1,0,1.793H2.036V33.05a0.863,0.863,0,0,0,.264.633,0.884,0.884,0,0,0,.65.264H33.695a0.329,0.329,0,0,0,.105-0.018,0.105,0.105,0,0,0,.07-0.07h0a0.112,0.112,0,0,0-.009-0.1,0.426,0.426,0,0,0-.062-0.079L21.951,21.816Zm-3.6,3.6,3.395,3.377a1.792,1.792,0,0,1,.65,1.16,2.071,2.071,0,0,1-.088.721,2.1,2.1,0,0,1-.448.571,1.781,1.781,0,0,1-1.274.36H8.347A2.7,2.7,0,0,1,5.64,27.654v-13.5A1.816,1.816,0,0,1,6,12.871a2.053,2.053,0,0,1,.571-0.457,1.983,1.983,0,0,1,.721-0.079,1.855,1.855,0,0,1,1.16.642l3.395,3.394-1.283,1.283L7.451,14.523V27.654a0.9,0.9,0,0,0,.9.9H21.478L18.347,25.42Z"/>
  <path id="_2" data-name="" class="cls-2" d="M17.083,24.683a0.9,0.9,0,0,1-.29.193,0.875,0.875,0,0,1-.343.07h-4.5a0.884,0.884,0,0,1-.65-0.264,0.863,0.863,0,0,1-.264-0.633v-4.5a0.874,0.874,0,0,1,.07-0.343,0.9,0.9,0,0,1,.193-0.29L28.035,2.183a2.667,2.667,0,0,1,.879-0.589,2.739,2.739,0,0,1,2.065,0,2.466,2.466,0,0,1,.87.589L33.8,4.134a2.6,2.6,0,0,1,.791,1.907A2.6,2.6,0,0,1,33.8,7.949Zm-1.02-1.529L30.478,8.74,27.244,5.523l-14.4,14.4v3.234h3.217ZM29.951,3.2a0.963,0.963,0,0,0-.352.062,1.016,1.016,0,0,0-.3.185l-0.791.791,3.234,3.234,0.791-.791a0.891,0.891,0,0,0,0-1.266L30.583,3.449a0.8,0.8,0,0,0-.29-0.185A0.988,0.988,0,0,0,29.951,3.2h0Z"/>
</svg>
