<svg xmlns="http://www.w3.org/2000/svg" width="36" height="36" viewBox="0 0 36 36">
  <metadata><?xpacket begin="﻿" id="W5M0MpCehiHzreSzNTczkc9d"?>
<x:xmpmeta xmlns:x="adobe:ns:meta/" x:xmptk="Adobe XMP Core 5.6-c138 79.159824, 2016/09/14-01:09:01        ">
   <rdf:RDF xmlns:rdf="http://www.w3.org/1999/02/22-rdf-syntax-ns#">
      <rdf:Description rdf:about=""/>
   </rdf:RDF>
</x:xmpmeta>
                                                                                                    
                                                                                                    
                                                                                                    
                                                                                                    
                                                                                                    
                                                                                                    
                                                                                                    
                                                                                                    
                                                                                                    
                                                                                                    
                                                                                                    
                                                                                                    
                                                                                                    
                                                                                                    
                                                                                                    
                                                                                                    
                                                                                                    
                                                                                                    
                                                                                                    
                                                                                                    
                           
<?xpacket end="w"?></metadata>
<defs>
    <style>
      .cls-1 {
        fill: #2667ff;
      }

      .cls-1, .cls-2 {
        fill-rule: evenodd;
      }

      .cls-2 {
        fill: #11ac68;
      }
    </style>
  </defs>
  <path id="_" data-name="" class="cls-1" d="M32.587,25.992h0a2.724,2.724,0,0,1,.633.853,2.341,2.341,0,0,1,.228,1.011,2.493,2.493,0,0,1-.185,1.037,2.666,2.666,0,0,1-.589.879l-1.951,1.951a2.418,2.418,0,0,1-.844.58,2.666,2.666,0,0,1-2.057-.026,2.432,2.432,0,0,1-.879-0.642L11.37,14.5a0.933,0.933,0,0,0-.281-0.193,0.817,0.817,0,0,0-.334-0.07,0.8,0.8,0,0,0-.308.061,0.835,0.835,0,0,0-.272.185L8.751,15.9a0.9,0.9,0,0,1-.29.193,0.876,0.876,0,0,1-.343.07h-0.9v0.9a0.878,0.878,0,0,1-.07.343,0.9,0.9,0,0,1-.193.29L5.148,19.506a0.891,0.891,0,0,1-1.266,0l-3.6-3.6a0.891,0.891,0,0,1,0-1.266l1.811-1.811a0.9,0.9,0,0,1,.29-0.193,0.878,0.878,0,0,1,.343-0.07h0.9v-0.9a0.875,0.875,0,0,1,.07-0.343,0.9,0.9,0,0,1,.193-0.29l6.293-6.311a3.444,3.444,0,0,1,1.274-.589,19.041,19.041,0,0,1,3.7-.448Q16.591,3.6,17.725,3.58l1.187-.018a0.913,0.913,0,0,1,.51.149,0.922,0.922,0,0,1,.387.932,0.88,0.88,0,0,1-.246.466L15.431,9.222a0.807,0.807,0,0,0-.185.281,0.864,0.864,0,0,0-.061.316,0.752,0.752,0,0,0,.07.325,0.954,0.954,0,0,0,.193.272ZM10.755,12.422a2.583,2.583,0,0,1,1.934.879l1.441,1.565,1.688-1.687-1.564-1.441a2.711,2.711,0,0,1-.633-0.853,2.336,2.336,0,0,1-.229-1.011,2.552,2.552,0,0,1,.756-1.916L16.7,5.408q-0.3.018-.615,0.026t-0.65.026a22.581,22.581,0,0,0-3.146.325,6.151,6.151,0,0,0-.861.237L5.411,12.035v1.424a0.884,0.884,0,0,1-.264.65,0.863,0.863,0,0,1-.633.264H3.091l-0.9.9,2.32,2.32,0.9-.9V15.269a0.863,0.863,0,0,1,.264-0.633,0.884,0.884,0,0,1,.65-0.264H7.749L8.91,13.2a2.515,2.515,0,0,1,.853-0.562,2.651,2.651,0,0,1,.993-0.193V12.422ZM31.41,28.506a0.812,0.812,0,0,0,.185-0.281,0.87,0.87,0,0,0,.061-0.316,0.757,0.757,0,0,0-.07-0.325,0.679,0.679,0,0,0-.211-0.255L17.154,14.39,15.343,16.2,28.281,30.422a0.656,0.656,0,0,0,.264.211,0.812,0.812,0,0,0,.334.07,0.8,0.8,0,0,0,.308-0.061,0.833,0.833,0,0,0,.272-0.185l1.951-1.951h0Z"/>
  <path id="_2" data-name="" class="cls-2" d="M20.9,13.443l0.283-.143a6.772,6.772,0,0,1-.343-1.239,7.332,7.332,0,0,1-.114-1.292,7.026,7.026,0,0,1,.563-2.8A7.16,7.16,0,0,1,22.831,5.68a7.466,7.466,0,0,1,2.294-1.547,6.9,6.9,0,0,1,2.786-.571,7.005,7.005,0,0,1,1.7.211,7.891,7.891,0,0,1,1.617.6,0.919,0.919,0,0,1,.316.281,0.938,0.938,0,0,1,.158.387,0.827,0.827,0,0,1-.035.413,0.945,0.945,0,0,1-.229.36L27.912,9.345v1.424h1.441l3.533-3.533a0.738,0.738,0,0,1,.343-0.22,1.167,1.167,0,0,1,.431-0.044,0.917,0.917,0,0,1,.65.475,7.008,7.008,0,0,1,.606,1.617,7.3,7.3,0,0,1,.2,1.705,7.049,7.049,0,0,1-.562,2.795,7.139,7.139,0,0,1-1.547,2.294A7.343,7.343,0,0,1,30.715,17.4a7.026,7.026,0,0,1-2.8.563,7.194,7.194,0,0,1-1.283-.114A7.3,7.3,0,0,1,25.38,17.5l0.051,0.072L24.1,16.361l0.389-.547a0.893,0.893,0,0,1,.492-0.272,0.814,0.814,0,0,1,.563.079,5.906,5.906,0,0,0,1.16.4,5.416,5.416,0,0,0,3.322-.281,5.342,5.342,0,0,0,1.714-1.16,5.651,5.651,0,0,0,1.16-1.723,5.163,5.163,0,0,0,.431-2.092,4.756,4.756,0,0,0-.044-0.65Q33.238,9.8,33.167,9.486L30.355,12.3a0.9,0.9,0,0,1-.29.193,0.875,0.875,0,0,1-.343.07H27.015a0.9,0.9,0,0,1-.9-0.9V8.959a0.874,0.874,0,0,1,.07-0.343,0.9,0.9,0,0,1,.193-0.29l2.813-2.812a6.037,6.037,0,0,0-.633-0.105,5.916,5.916,0,0,0-.65-0.035,5.253,5.253,0,0,0-2.092.422,5.409,5.409,0,0,0-1.714,1.151,5.536,5.536,0,0,0-1.16,1.714,5.2,5.2,0,0,0-.431,2.109,5.268,5.268,0,0,0,.141,1.213,5.914,5.914,0,0,0,.4,1.16h0a0.813,0.813,0,0,1,.079.563,0.986,0.986,0,0,1-.273.51l-0.635.459ZM18.773,24.759l-6.084,6.875a2.628,2.628,0,0,1-1.863.861h-0.07a2.626,2.626,0,0,1-1-.193,2.417,2.417,0,0,1-.844-0.58L6.958,29.771a2.658,2.658,0,0,1-.589-0.879,2.484,2.484,0,0,1-.185-1.037,2.626,2.626,0,0,1,.237-1.011,2.5,2.5,0,0,1,.642-0.853l7.1-6.295,1.213,1.336L8.259,27.328a0.969,0.969,0,0,0-.281.58,0.864,0.864,0,0,0,.062.316,0.8,0.8,0,0,0,.185.281l1.951,1.951a0.806,0.806,0,0,0,.281.185,0.864,0.864,0,0,0,.316.061,0.65,0.65,0,0,0,.308-0.079,1.142,1.142,0,0,0,.273-0.2h0l6.207-7.016Z"/>
</svg>
