<svg xmlns="http://www.w3.org/2000/svg" width="36" height="36" viewBox="0 0 36 36">
  <metadata><?xpacket begin="﻿" id="W5M0MpCehiHzreSzNTczkc9d"?>
<x:xmpmeta xmlns:x="adobe:ns:meta/" x:xmptk="Adobe XMP Core 5.6-c138 79.159824, 2016/09/14-01:09:01        ">
   <rdf:RDF xmlns:rdf="http://www.w3.org/1999/02/22-rdf-syntax-ns#">
      <rdf:Description rdf:about=""/>
   </rdf:RDF>
</x:xmpmeta>
                                                                                                    
                                                                                                    
                                                                                                    
                                                                                                    
                                                                                                    
                                                                                                    
                                                                                                    
                                                                                                    
                                                                                                    
                                                                                                    
                                                                                                    
                                                                                                    
                                                                                                    
                                                                                                    
                                                                                                    
                                                                                                    
                                                                                                    
                                                                                                    
                                                                                                    
                                                                                                    
                           
<?xpacket end="w"?></metadata>
<defs>
    <style>
      .cls-1 {
        fill: #2667ff;
      }

      .cls-1, .cls-2 {
        fill-rule: evenodd;
      }

      .cls-2 {
        fill: #11ac68;
      }
    </style>
  </defs>
  <path id="_" data-name="" class="cls-1" d="M20.7,24.259a0.9,0.9,0,0,0,0-1.793H6.286A0.863,0.863,0,0,1,5.654,22.2a0.884,0.884,0,0,1-.264-0.65V7.156a0.9,0.9,0,0,1,.9-0.9H29.7a0.9,0.9,0,0,1,.9.9V8.966a0.9,0.9,0,0,0,1.793,0V7.156A2.7,2.7,0,0,0,29.7,4.466H6.286a2.589,2.589,0,0,0-1.9.791,2.589,2.589,0,0,0-.791,1.9v14.4a2.7,2.7,0,0,0,2.689,2.707H20.7Zm0,7.207a0.863,0.863,0,0,0,.633-0.264,0.884,0.884,0,0,0,.264-0.65,0.9,0.9,0,0,0-.9-0.9H2.7a0.884,0.884,0,0,1-.65-0.264,0.863,0.863,0,0,1-.264-0.633v-0.9H20.7a0.9,0.9,0,0,0,.9-0.9,0.884,0.884,0,0,0-.264-0.65,0.863,0.863,0,0,0-.633-0.264H0.89a0.863,0.863,0,0,0-.633.264,0.884,0.884,0,0,0-.264.65v1.793a2.609,2.609,0,0,0,.791,1.916,2.609,2.609,0,0,0,1.916.791h18Z"/>
  <path id="_2" data-name="" class="cls-2" d="M33.287,31.466a2.7,2.7,0,0,0,2.707-2.707v-14.4a2.7,2.7,0,0,0-2.707-2.707H26.1a2.7,2.7,0,0,0-2.707,2.707v14.4A2.7,2.7,0,0,0,26.1,31.466h7.189Zm-7.189-18h7.189a0.884,0.884,0,0,1,.65.264,0.863,0.863,0,0,1,.264.633v14.4a0.863,0.863,0,0,1-.264.633,0.884,0.884,0,0,1-.65.264H26.1a0.9,0.9,0,0,1-.9-0.9v-14.4a0.9,0.9,0,0,1,.9-0.9h0Zm3.6,14.4a0.875,0.875,0,0,0,.343-0.07,0.889,0.889,0,0,0,.483-0.483,0.878,0.878,0,0,0,.07-0.343,0.859,0.859,0,0,0-.07-0.352,1.192,1.192,0,0,0-.193-0.3,0.9,0.9,0,0,0-.29-0.193,0.88,0.88,0,0,0-.343-0.07,0.858,0.858,0,0,0-.352.07,0.849,0.849,0,0,0-.492.492,0.854,0.854,0,0,0-.07.352,0.872,0.872,0,0,0,.07.343,0.892,0.892,0,0,0,.193.29,1.175,1.175,0,0,0,.3.193,0.853,0.853,0,0,0,.352.07h0Z"/>
</svg>
