<svg xmlns="http://www.w3.org/2000/svg" width="36" height="36" viewBox="0 0 36 36">
  <metadata><?xpacket begin="﻿" id="W5M0MpCehiHzreSzNTczkc9d"?>
<x:xmpmeta xmlns:x="adobe:ns:meta/" x:xmptk="Adobe XMP Core 5.6-c138 79.159824, 2016/09/14-01:09:01        ">
   <rdf:RDF xmlns:rdf="http://www.w3.org/1999/02/22-rdf-syntax-ns#">
      <rdf:Description rdf:about=""/>
   </rdf:RDF>
</x:xmpmeta>
                                                                                                    
                                                                                                    
                                                                                                    
                                                                                                    
                                                                                                    
                                                                                                    
                                                                                                    
                                                                                                    
                                                                                                    
                                                                                                    
                                                                                                    
                                                                                                    
                                                                                                    
                                                                                                    
                                                                                                    
                                                                                                    
                                                                                                    
                                                                                                    
                                                                                                    
                                                                                                    
                           
<?xpacket end="w"?></metadata>
<defs>
    <style>
      .cls-1 {
        fill: #2667ff;
      }

      .cls-1, .cls-2 {
        fill-rule: evenodd;
      }

      .cls-2 {
        fill: #11ac68;
      }
    </style>
  </defs>
  <path id="_" data-name="" class="cls-1" d="M33.945,29.538a2.489,2.489,0,0,1,.589.861,2.762,2.762,0,0,1,0,2.074,2.667,2.667,0,0,1-.589.879L32.89,34.407a2.7,2.7,0,0,1-.87.58,2.634,2.634,0,0,1-2.065,0,2.936,2.936,0,0,1-.879-0.58L10.021,15.352a2.657,2.657,0,0,1-.589-0.879,2.761,2.761,0,0,1,0-2.074,2.48,2.48,0,0,1,.589-0.861l1.055-1.055a2.667,2.667,0,0,1,.879-0.589,2.739,2.739,0,0,1,2.065,0,2.466,2.466,0,0,1,.87.589L33.945,29.538h0ZM11.287,12.8a0.891,0.891,0,0,0,0,1.266l2.6,2.6,2.32-2.338-2.584-2.584a0.9,0.9,0,0,0-.29-0.193,0.88,0.88,0,0,0-.343-0.07,0.859,0.859,0,0,0-.352.07,1.187,1.187,0,0,0-.3.193L11.287,12.8h0ZM32.679,32.069a0.891,0.891,0,0,0,0-1.266L17.492,15.616l-2.338,2.32L30.341,33.124a0.865,0.865,0,0,0,.3.2,0.958,0.958,0,0,0,.352.062,0.982,0.982,0,0,0,.343-0.062,0.7,0.7,0,0,0,.29-0.2l1.055-1.055h0Z"/>
  <path id="_2" data-name="" class="cls-2" d="M21.992,13.436a0.9,0.9,0,0,0,.9-0.9,4.377,4.377,0,0,1,.351-1.749,4.535,4.535,0,0,1,2.4-2.4,4.381,4.381,0,0,1,1.749-.352,0.9,0.9,0,0,0,0-1.793,4.286,4.286,0,0,1-1.749-.36,4.746,4.746,0,0,1-1.433-.967A4.438,4.438,0,0,1,23.24,3.5a4.376,4.376,0,0,1-.351-1.749,0.884,0.884,0,0,0-.264-0.65A0.863,0.863,0,0,0,21.992.833a0.9,0.9,0,0,0-.914.914A4.382,4.382,0,0,1,20.726,3.5a4.518,4.518,0,0,1-.958,1.424,4.607,4.607,0,0,1-1.433.967,4.348,4.348,0,0,1-1.758.36,0.9,0.9,0,0,0,0,1.793,4.472,4.472,0,0,1,3.19,1.318,4.627,4.627,0,0,1,.958,1.433,4.382,4.382,0,0,1,.352,1.749,0.863,0.863,0,0,0,.264.633,0.884,0.884,0,0,0,.65.264h0ZM19.83,7.143a6.361,6.361,0,0,0,2.162-2.162,5.691,5.691,0,0,0,.94,1.213,6.909,6.909,0,0,0,1.2.949,6.936,6.936,0,0,0-1.2.949,5.7,5.7,0,0,0-.94,1.213A6.361,6.361,0,0,0,19.83,7.143h0ZM3.992,18.833a0.9,0.9,0,0,0,.9-0.9,0.9,0.9,0,0,1,.9-0.9,0.9,0.9,0,0,0,0-1.793,0.863,0.863,0,0,1-.633-0.264,0.884,0.884,0,0,1-.264-0.65,0.9,0.9,0,0,0-.9-0.9,0.884,0.884,0,0,0-.65.264,0.863,0.863,0,0,0-.264.633,0.884,0.884,0,0,1-.264.65,0.863,0.863,0,0,1-.633.264,0.9,0.9,0,0,0-.9.9,0.863,0.863,0,0,0,.264.633,0.863,0.863,0,0,0,.633.264,0.9,0.9,0,0,1,.9.9,0.863,0.863,0,0,0,.264.633,0.884,0.884,0,0,0,.65.264h0Zm3.586-9a0.884,0.884,0,0,0,.65-0.264,0.863,0.863,0,0,0,.264-0.633,2.7,2.7,0,0,1,2.689-2.689,0.863,0.863,0,0,0,.633-0.264,0.884,0.884,0,0,0,.264-0.65,0.9,0.9,0,0,0-.9-0.9,2.589,2.589,0,0,1-1.9-.791,2.589,2.589,0,0,1-.791-1.9A0.9,0.9,0,0,0,7.578.833a0.863,0.863,0,0,0-.633.264,0.884,0.884,0,0,0-.264.65,2.589,2.589,0,0,1-.791,1.9,2.589,2.589,0,0,1-1.9.791,0.884,0.884,0,0,0-.65.264,0.863,0.863,0,0,0-.264.633,0.9,0.9,0,0,0,.914.914,2.589,2.589,0,0,1,1.9.791,2.589,2.589,0,0,1,.791,1.9,0.9,0.9,0,0,0,.9.9h0Zm-0.9-4.5a4.066,4.066,0,0,0,.9-0.9A3.7,3.7,0,0,0,8,4.92a4.773,4.773,0,0,0,.492.413,4.226,4.226,0,0,0-.914.914,4.875,4.875,0,0,0-.413-0.492,3.764,3.764,0,0,0-.483-0.422h0Zm0.9,22.5a0.884,0.884,0,0,0,.65-0.264,0.863,0.863,0,0,0,.264-0.633,2.7,2.7,0,0,1,2.689-2.689,0.863,0.863,0,0,0,.633-0.264,0.884,0.884,0,0,0,.264-0.65,0.9,0.9,0,0,0-.9-0.9,2.7,2.7,0,0,1-2.689-2.689,0.9,0.9,0,0,0-.914-0.914,0.863,0.863,0,0,0-.633.264,0.884,0.884,0,0,0-.264.65,2.589,2.589,0,0,1-.791,1.9,2.589,2.589,0,0,1-1.9.791,0.884,0.884,0,0,0-.65.264,0.863,0.863,0,0,0-.264.633,0.9,0.9,0,0,0,.914.914,2.589,2.589,0,0,1,1.9.791,2.589,2.589,0,0,1,.791,1.9,0.9,0.9,0,0,0,.9.9h0Zm-0.9-4.5a4.067,4.067,0,0,0,.9-0.9A3.7,3.7,0,0,0,8,22.92a4.768,4.768,0,0,0,.492.413,4.226,4.226,0,0,0-.914.914,4.869,4.869,0,0,0-.413-0.492,3.762,3.762,0,0,0-.483-0.422h0Z"/>
</svg>
