<svg xmlns="http://www.w3.org/2000/svg" width="36" height="36" viewBox="0 0 36 36">
  <metadata><?xpacket begin="﻿" id="W5M0MpCehiHzreSzNTczkc9d"?>
<x:xmpmeta xmlns:x="adobe:ns:meta/" x:xmptk="Adobe XMP Core 5.6-c138 79.159824, 2016/09/14-01:09:01        ">
   <rdf:RDF xmlns:rdf="http://www.w3.org/1999/02/22-rdf-syntax-ns#">
      <rdf:Description rdf:about=""/>
   </rdf:RDF>
</x:xmpmeta>
<?xpacket end="w"?></metadata>
<defs>
    <style>
      .cls-1 {
        fill: #2667ff;
      }

      .cls-1, .cls-2 {
        fill-rule: evenodd;
      }

      .cls-2 {
        fill: #11ac68;
      }
    </style>
  </defs>
  <path id="_" data-name="" class="cls-1" d="M35.535,10.8a8.812,8.812,0,0,1-.879,3.867,1.012,1.012,0,0,1-.079.132,0.894,0.894,0,0,1-.1.114l-0.018.018-19,19a0.625,0.625,0,0,1-.22.167,0.911,0.911,0,0,1-.29.079L2.365,35.99H2.224a0.986,0.986,0,0,1-.343-0.061,0.705,0.705,0,0,1-.29-0.2,0.888,0.888,0,0,1-.211-0.343,0.822,0.822,0,0,1-.035-0.413l1.793-12.6a0.777,0.777,0,0,1,.088-0.272A0.992,0.992,0,0,1,3.4,21.857l19-19a0.9,0.9,0,0,1,.114-0.1,1.012,1.012,0,0,1,.132-0.079,8.839,8.839,0,0,1,1.89-.659,9.056,9.056,0,0,1,2-.22,8.763,8.763,0,0,1,3.5.7,9.063,9.063,0,0,1,2.856,1.925,9.157,9.157,0,0,1,1.934,2.865,8.729,8.729,0,0,1,.712,3.507h0Zm-1.811,0A7.031,7.031,0,0,0,33.162,8a7.24,7.24,0,0,0-1.538-2.285,7.332,7.332,0,0,0-2.294-1.547,6.957,6.957,0,0,0-2.795-.571,7.317,7.317,0,0,0-1.521.158,7.112,7.112,0,0,0-1.45.475L21.49,6.3a9.6,9.6,0,0,1,3.656.844A10.074,10.074,0,0,1,28.134,9.2a9.94,9.94,0,0,1,2.048,2.988,9.667,9.667,0,0,1,.835,3.639l2.074-2.074a6.735,6.735,0,0,0,.475-1.433,7.322,7.322,0,0,0,.158-1.521h0ZM4.035,28.8a4.381,4.381,0,0,1,1.749.352,4.446,4.446,0,0,1,1.424.967,4.753,4.753,0,0,1,.967,1.433,4.249,4.249,0,0,1,.36,1.731l5.326-.756q0.035-.264.053-0.519t0.018-.519a7.812,7.812,0,0,0-.642-3.146,8.263,8.263,0,0,0-1.74-2.575,8.138,8.138,0,0,0-2.575-1.731A7.9,7.9,0,0,0,5.827,23.4q-0.246,0-.51.009a4.784,4.784,0,0,0-.51.044L4.035,28.8h0ZM19.556,8.252L6.2,21.611a8.626,8.626,0,0,1,1.652.193,10.73,10.73,0,0,1,1.564.466,9.488,9.488,0,0,1,1.45.7,9.393,9.393,0,0,1,1.292.923L26.183,9.869a8.308,8.308,0,0,0-2.329-1.3,7.813,7.813,0,0,0-2.716-.475,7.279,7.279,0,0,0-.8.044q-0.4.044-.782,0.114h0Zm-6.117,16.91a9.729,9.729,0,0,1,.914,1.31,10.982,10.982,0,0,1,.7,1.441,9.216,9.216,0,0,1,.466,1.556,10.375,10.375,0,0,1,.2,1.67L29.083,17.779q0.07-.386.105-0.782t0.035-.8a7.967,7.967,0,0,0-1.775-5.045l-14.01,14.01h0Zm-9.65,5.449L3.3,34.039l3.428-.492V33.3a2.61,2.61,0,0,0-.791-1.916,2.589,2.589,0,0,0-1.9-.791A0.94,0.94,0,0,0,3.9,30.6a0.793,0.793,0,0,1-.114.009h0Z"/>
  <path id="_2" data-name="" class="cls-2" d="M12.138-.01a2.589,2.589,0,0,1,1.9.791A2.61,2.61,0,0,1,14.828,2.7V6.3a0.9,0.9,0,0,1-1.793,0V2.7a0.9,0.9,0,0,0-.9-0.9h-9a0.884,0.884,0,0,0-.65.264,0.863,0.863,0,0,0-.264.633v0.9H3.138a0.9,0.9,0,0,1,.9.9,0.884,0.884,0,0,1-.264.65,0.863,0.863,0,0,1-.633.264H2.224V7.2H4.931a0.9,0.9,0,0,1,0,1.793H2.224V10.8H3.138a0.9,0.9,0,0,1,0,1.793H2.224V14.4H4.931a0.9,0.9,0,0,1,0,1.793H2.224v4.5a0.863,0.863,0,0,1-.264.633,0.863,0.863,0,0,1-.633.264A0.863,0.863,0,0,1,.695,21.33,0.863,0.863,0,0,1,.431,20.7V2.7A2.61,2.61,0,0,1,1.222.781,2.609,2.609,0,0,1,3.138-.01h9Z"/>
</svg>
