<svg xmlns="http://www.w3.org/2000/svg" width="36" height="36" viewBox="0 0 36 36">
  <metadata><?xpacket begin="﻿" id="W5M0MpCehiHzreSzNTczkc9d"?>
<x:xmpmeta xmlns:x="adobe:ns:meta/" x:xmptk="Adobe XMP Core 5.6-c138 79.159824, 2016/09/14-01:09:01        ">
   <rdf:RDF xmlns:rdf="http://www.w3.org/1999/02/22-rdf-syntax-ns#">
      <rdf:Description rdf:about=""/>
   </rdf:RDF>
</x:xmpmeta>
                                                                                                    
                                                                                                    
                                                                                                    
                                                                                                    
                                                                                                    
                                                                                                    
                                                                                                    
                                                                                                    
                                                                                                    
                                                                                                    
                                                                                                    
                                                                                                    
                                                                                                    
                                                                                                    
                                                                                                    
                                                                                                    
                                                                                                    
                                                                                                    
                                                                                                    
                                                                                                    
                           
<?xpacket end="w"?></metadata>
<defs>
    <style>
      .cls-1 {
        fill: #2667ff;
      }

      .cls-1, .cls-2 {
        fill-rule: evenodd;
      }

      .cls-2 {
        fill: #11ac68;
      }
    </style>
  </defs>
  <path id="_" data-name="" class="cls-1" d="M29.113,30.1L31.4,34.689a0.847,0.847,0,0,1,.053.694,0.856,0.856,0,0,1-.457.519,0.551,0.551,0,0,1-.193.07,1.209,1.209,0,0,1-.193.018,0.939,0.939,0,0,1-.466-0.123A0.838,0.838,0,0,1,29.8,35.5l-2.145-4.289A15.731,15.731,0,0,1,25.448,32.5a17.366,17.366,0,0,1-2.364.932,16.77,16.77,0,0,1-2.5.571,17.426,17.426,0,0,1-5.177,0,16.815,16.815,0,0,1-2.487-.571,17.35,17.35,0,0,1-2.364-.932,15.718,15.718,0,0,1-2.206-1.292L6.208,35.5a0.841,0.841,0,0,1-.343.369,0.941,0.941,0,0,1-.466.123,1.147,1.147,0,0,1-.2-0.018A0.761,0.761,0,0,1,5,35.9a0.824,0.824,0,0,1-.448-0.519,0.918,0.918,0,0,1,.044-0.694l2.3-4.588q-0.246-.211-0.5-0.439T5.91,29.187a17.162,17.162,0,0,1-3.718-5.546,16.6,16.6,0,0,1-.967-3.182,17.539,17.539,0,0,1,0-6.724,16.571,16.571,0,0,1,.967-3.19A17.27,17.27,0,0,1,8.52,2.855a16.812,16.812,0,0,1,2.936-1.564A17.505,17.505,0,0,1,14.637.324,17.146,17.146,0,0,1,19.981.1a17.678,17.678,0,0,1,1.925.334,16.882,16.882,0,0,1,1.881.554,14.643,14.643,0,0,1,1.811.791,0.856,0.856,0,0,1,.457.51A0.828,0.828,0,0,1,26,2.978a0.854,0.854,0,0,1-.51.457,0.826,0.826,0,0,1-.685-0.053Q24,3,23.171,2.7a15.382,15.382,0,0,0-1.679-.5,14.371,14.371,0,0,0-1.723-.3A16.032,16.032,0,0,0,18,1.8,14.839,14.839,0,0,0,12.053,3,15.6,15.6,0,0,0,7.184,6.283,15.416,15.416,0,0,0,3.9,11.143a14.835,14.835,0,0,0-1.2,5.95,14.834,14.834,0,0,0,1.2,5.95A15.426,15.426,0,0,0,12.053,31.2,14.833,14.833,0,0,0,18,32.4a14.835,14.835,0,0,0,5.95-1.2,15.415,15.415,0,0,0,4.86-3.287,15.6,15.6,0,0,0,3.278-4.869,14.838,14.838,0,0,0,1.2-5.95,16.023,16.023,0,0,0-.1-1.767,14.358,14.358,0,0,0-.3-1.723,15.366,15.366,0,0,0-.5-1.679q-0.3-.826-0.686-1.635a0.826,0.826,0,0,1-.053-0.686,0.854,0.854,0,0,1,.457-0.51A0.828,0.828,0,0,1,32.8,9.043a0.856,0.856,0,0,1,.51.457A14.637,14.637,0,0,1,34.1,11.31a16.856,16.856,0,0,1,.554,1.881,17.663,17.663,0,0,1,.334,1.925,17.142,17.142,0,0,1-.22,5.344,17.506,17.506,0,0,1-.967,3.182,16.816,16.816,0,0,1-1.564,2.935,17.1,17.1,0,0,1-2.145,2.61q-0.246.246-.492,0.475t-0.492.439h0ZM18,26.99a9.63,9.63,0,0,0,3.841-.773A9.955,9.955,0,0,0,24.991,24.1a10.08,10.08,0,0,0,2.127-3.146,9.586,9.586,0,0,0,.782-3.858,10.029,10.029,0,0,0-.334-2.566,9.408,9.408,0,0,0-.984-2.373,0.887,0.887,0,0,0-.554-0.431,0.834,0.834,0,0,0-.677.1,0.824,0.824,0,0,0-.431.536,0.879,0.879,0,0,0,.1.694,8.2,8.2,0,0,1,.809,1.942,7.936,7.936,0,0,1,.281,2.1,7.811,7.811,0,0,1-.642,3.146,8.181,8.181,0,0,1-4.315,4.315,8.036,8.036,0,0,1-6.293,0,8.181,8.181,0,0,1-4.315-4.315,8.037,8.037,0,0,1,0-6.293,8.181,8.181,0,0,1,4.316-4.315,7.973,7.973,0,0,1,4.8-.466,8.609,8.609,0,0,1,1.582.51,0.919,0.919,0,0,0,.694.009,0.881,0.881,0,0,0,.5-0.483,0.9,0.9,0,0,0,.009-0.686,0.82,0.82,0,0,0-.483-0.492,10.1,10.1,0,0,0-1.925-.615A9.746,9.746,0,0,0,18,7.2a9.586,9.586,0,0,0-3.858.782A10.078,10.078,0,0,0,11,10.106,9.956,9.956,0,0,0,8.88,13.253a9.967,9.967,0,0,0,0,7.7,9.893,9.893,0,0,0,5.265,5.265A9.672,9.672,0,0,0,18,26.99h0Zm0-5.4a4.375,4.375,0,0,0,1.749-.352,4.534,4.534,0,0,0,2.4-2.4,4.38,4.38,0,0,0,.352-1.749,0.9,0.9,0,0,0-.9-0.9,0.884,0.884,0,0,0-.65.264,0.863,0.863,0,0,0-.264.633,2.7,2.7,0,1,1-5.4,0,2.6,2.6,0,0,1,.571-1.644,2.739,2.739,0,0,1,1.45-.976,0.837,0.837,0,0,0,.554-0.4,0.9,0.9,0,0,0,.1-0.686,0.858,0.858,0,0,0-.413-0.545,0.868,0.868,0,0,0-.677-0.105,4.278,4.278,0,0,0-1.371.615,4.768,4.768,0,0,0-1.063.993,4.506,4.506,0,0,0-.589,4.5,4.534,4.534,0,0,0,2.4,2.4A4.375,4.375,0,0,0,18,21.593h0Z"/>
  <path id="_2" data-name="" class="cls-2" d="M30.607,7.2a0.9,0.9,0,0,1,0,1.793h-3.27q-0.422.352-1.389,1.213T23.76,12.242q-1.222,1.178-2.566,2.575t-2.487,2.839a0.84,0.84,0,0,1-.325.255A0.952,0.952,0,0,1,18,17.99a0.993,0.993,0,0,1-.3-0.044,0.739,0.739,0,0,1-.264-0.149,0.82,0.82,0,0,1-.334-0.6,0.92,0.92,0,0,1,.193-0.668q1.178-1.477,2.531-2.892t2.593-2.61q1.239-1.2,2.224-2.074t1.459-1.283V4.49a0.9,0.9,0,0,1,1.793,0V7.2h2.707ZM34.193,5.4a0.9,0.9,0,0,0,.914-0.914,0.863,0.863,0,0,0-.264-0.633,0.884,0.884,0,0,0-.65-0.264H31.5V0.9A0.884,0.884,0,0,0,31.24.254,0.863,0.863,0,0,0,30.607-.01a0.884,0.884,0,0,0-.65.264,0.884,0.884,0,0,0-.264.65V4.49a0.9,0.9,0,0,0,.914.914h3.586Z"/>
</svg>
